# xmcd
#
# Track frame offsets:
# 150
# 15340
# 31235
# 42137
# 51515
# 66140
# 77950
# 90575
# 105420
# 115887
# 127365
# 141870
# 157095
# 173450
# 187500
# 199000
# 208095
# 228465
# 246355
# 263195
# 276750
# 290315
# 303135
# 315225
#
# Disc length: 4372 seconds
#
#
# Revision: 4
# Processed by: cddbd v1.5.2PL0 Copyright (c) Steve Scherf et al.
# Submitted via: FreeRIP 2.951 
#
DISCID=47111218
DTITLE=Various Artist - Best Country CD2
DYEAR=1989
DGENRE=Country
TTITLE0=Dolly Parton - Apple Jack
TTITLE1=Bill Anderson - Nashville Mirrors
TTITLE2=Roy Head - Angel with a broken Wing
TTITLE3=Burl Ives - Little Bitty Tear
TTITLE4=Jeanne Pruett - Satin Sheets
TTITLE5=Conway Twitty and Loretta Lynn - After the Fire is gone
TTITLE6=Bob Wills - San Antonio Rose
TTITLE7=Roy Clark - Yesterday when I was young
TTITLE8=Emmylou Harris - Mr. Sandman
TTITLE9=Charlie Rich - The most beautiful girl
TTITLE10=Merle Haggard - If we're not back in love by monday
TTITLE11=John Conlee - As long as I am rocking with you
TTITLE12=Reba McEntire - Only in my mind
TTITLE13=Glen Campbell - The hand that rocks the cradle
TTITLE14=Freddy Fender - Before the next teardrop falls
TTITLE15=Crystal Gayle - Sparkling look of love
TTITLE16=Steve Earle - Copperhead Road
TTITLE17=Nanci Griffith - Lone Star State Of Mind
TTITLE18=Steve Wariner - Small Town Girl
TTITLE19=Nicolette Larsen - Only Love Will Make It Right
TTITLE20=Lee Greenwood - Hearts Aren´t Made To Break
TTITLE21=George Strait - It Ain´t Cool To Be Crazy About You
TTITLE22=Tammy Wynette - Stand By Your Man
TTITLE23=Tommy Overstreet - Send Me No Roses
EXTD=YEAR: 1989 ID3G: 2
EXTT0=
EXTT1=
EXTT2=
EXTT3=
EXTT4=
EXTT5=
EXTT6=
EXTT7=
EXTT8=
EXTT9=
EXTT10=
EXTT11=
EXTT12=
EXTT13=
EXTT14=
EXTT15=
EXTT16=
EXTT17=
EXTT18=
EXTT19=
EXTT20=
EXTT21=
EXTT22=
EXTT23=
PLAYORDER=
